<svg width="102" height="90" viewBox="0 0 102 90" fill="none" xmlns="http://www.w3.org/2000/svg">
<path d="M90.1309 12.1129C87.877 9.85787 85.2008 8.06906 82.2554 6.84861C79.3099 5.62817 76.1529 5 72.9646 5C69.7764 5 66.6193 5.62817 63.6739 6.84861C60.7284 8.06906 58.0523 9.85787 55.7984 12.1129L51.1207 16.7905L46.443 12.1129C41.8902 7.56008 35.7153 5.00236 29.2767 5.00236C22.8382 5.00236 16.6633 7.56008 12.1105 12.1129C7.55772 16.6656 5 22.8405 5 29.2791C5 35.7177 7.55772 41.8926 12.1105 46.4454L16.7882 51.123L51.1207 85.4555L85.4532 51.123L90.1309 46.4454C92.3859 44.1914 94.1747 41.5153 95.3951 38.5699C96.6156 35.6244 97.2437 32.4674 97.2437 29.2791C97.2437 26.0908 96.6156 22.9338 95.3951 19.9883C94.1747 17.0429 92.3859 14.3668 90.1309 12.1129Z" stroke="#6AE367" stroke-width="8.82584" stroke-linecap="round" stroke-linejoin="round"/>
</svg>
