<svg width="420" height="332" viewBox="0 0 420 332" fill="none" xmlns="http://www.w3.org/2000/svg">
<path d="M293.157 267.17V307.904C293.157 317.858 301.226 325.928 311.181 325.928H385.735C395.689 325.928 403.759 317.858 403.759 307.904V214.506" stroke="#122A0E" stroke-width="10.6506" stroke-linecap="round"/>
<path d="M291.928 239.904V211.229M291.928 211.229H409.904C412.166 211.229 414 209.395 414 207.132V194.843V182.554C414 180.292 412.166 178.458 409.904 178.458H286.193C283.93 178.458 282.096 180.292 282.096 182.554V207.132C282.096 209.395 283.93 211.229 286.193 211.229H291.928Z" stroke="#122A0E" stroke-width="10.6506" stroke-linecap="round"/>
<path d="M318.554 237.855V297.253" stroke="#122A0E" stroke-width="10.6506" stroke-linecap="round"/>
<path d="M348.048 238.265V297.663" stroke="#122A0E" stroke-width="10.6506" stroke-linecap="round"/>
<path d="M376.723 238.265V297.663" stroke="#122A0E" stroke-width="10.6506" stroke-linecap="round"/>
<path d="M337.398 176V160.024C337.398 157.762 339.232 155.928 341.494 155.928H355.831C358.094 155.928 359.928 157.762 359.928 160.024V176" stroke="#122A0E" stroke-width="10.6506" stroke-linecap="round"/>
<path d="M362.386 82.1929C362.386 82.1929 385.127 82.5752 387.521 89.4654C389.914 96.3556 375.153 175.59 375.153 175.59" stroke="#122A0E" stroke-width="10.6506" stroke-linecap="round"/>
<path d="M333.301 80.1446H321.422M49.4217 305.446L94.214 91.2218C95.5634 84.7679 101.253 80.1446 107.847 80.1446H321.422M49.4217 305.446H19.9277C12.2357 305.446 6 299.21 6 291.518V60.6868C6 53.1078 12.1439 46.9639 19.7229 46.9639V46.9639C27.3018 46.9639 33.4458 40.8199 33.4458 33.241V19.9277C33.4458 12.2356 39.6814 6 47.3735 6H130.12M49.4217 305.446H287.422M230.892 46.9639L219.46 15.2101C217.471 9.68419 212.229 6 206.356 6H130.12M230.892 46.9639H307.494C315.186 46.9639 321.422 53.1995 321.422 60.8916V80.1446M230.892 46.9639H155.614C149.875 46.9639 144.723 43.4435 142.638 38.0967L130.12 6M96.5301 268.169H180.916M107.181 244.41H158.795" stroke="#122A0E" stroke-width="10.6506" stroke-linecap="round"/>
</svg>
