<svg width="375" height="320" viewBox="0 0 375 320" fill="none" xmlns="http://www.w3.org/2000/svg">
<path d="M356.596 6H12.9317C9.10341 6 6 9.10341 6 12.9317V251.891C6 258.742 11.5535 264.295 18.404 264.295H356.596C363.447 264.295 369 258.742 369 251.891V18.404C369 11.5535 363.447 6 356.596 6Z" stroke="#122A0E" stroke-width="12" stroke-linecap="round"/>
<path d="M7.45929 219.787H369M82.6131 38.834H282.537C289.387 38.834 294.941 44.3875 294.941 51.238V150.835C294.941 157.686 289.387 163.239 282.537 163.239H267.944" stroke="#122A0E" stroke-width="12" stroke-linecap="round"/>
<path d="M159.956 268.673L151.565 313.547M124.933 313.547H223.07M250.797 313.547H223.07M213.22 268.673L223.07 313.547" stroke="#122A0E" stroke-width="12" stroke-linecap="round"/>
<mask id="path-4-outside-1_158_69" maskUnits="userSpaceOnUse" x="154.011" y="64.4307" width="49" height="74" fill="black">
<rect fill="white" x="154.011" y="64.4307" width="49" height="74"/>
<path d="M183.119 99.9663C186.026 99.9663 188.416 98.9004 190.289 96.7686C192.227 94.6369 193.196 91.8269 193.196 88.3386V87.7572C193.196 85.8192 192.841 84.0105 192.13 82.3309C191.484 80.6514 190.548 79.1979 189.32 77.9706C188.093 76.6786 186.607 75.6773 184.863 74.9668C183.119 74.1916 181.181 73.804 179.049 73.804C174.398 73.804 170.748 75.2251 168.1 78.0675C165.451 80.9098 164.127 84.6565 164.127 89.3076V93.3772H155.988V88.7262C155.988 85.7547 156.472 82.9123 157.441 80.1992C158.475 77.4861 159.961 75.0959 161.898 73.0288C163.836 70.9617 166.259 69.3144 169.166 68.087C172.073 66.8597 175.432 66.246 179.243 66.246C182.473 66.246 185.444 66.7951 188.158 67.8932C190.871 68.9914 193.196 70.5095 195.134 72.4474C197.072 74.3208 198.59 76.5171 199.688 79.0364C200.787 81.4912 201.336 84.1074 201.336 86.8851V88.6293C201.336 91.1486 200.883 93.571 199.979 95.8966C199.139 98.1575 197.944 100.128 196.394 101.807C194.844 103.487 193.002 104.843 190.871 105.877C188.804 106.846 186.543 107.33 184.088 107.33H182.731C180.923 107.33 180.018 108.299 180.018 110.237V117.408H172.266V108.299C172.266 105.845 173.042 103.842 174.592 102.292C176.142 100.741 178.145 99.9663 180.6 99.9663H183.119ZM169.456 130.004C169.456 128.131 170.102 126.548 171.394 125.256C172.751 123.9 174.366 123.222 176.239 123.222C178.113 123.222 179.695 123.9 180.987 125.256C182.344 126.548 183.022 128.131 183.022 130.004C183.022 131.878 182.344 133.493 180.987 134.849C179.695 136.141 178.113 136.787 176.239 136.787C174.366 136.787 172.751 136.141 171.394 134.849C170.102 133.493 169.456 131.878 169.456 130.004Z"/>
</mask>
<path d="M183.119 99.9663C186.026 99.9663 188.416 98.9004 190.289 96.7686C192.227 94.6369 193.196 91.8269 193.196 88.3386V87.7572C193.196 85.8192 192.841 84.0105 192.13 82.3309C191.484 80.6514 190.548 79.1979 189.32 77.9706C188.093 76.6786 186.607 75.6773 184.863 74.9668C183.119 74.1916 181.181 73.804 179.049 73.804C174.398 73.804 170.748 75.2251 168.1 78.0675C165.451 80.9098 164.127 84.6565 164.127 89.3076V93.3772H155.988V88.7262C155.988 85.7547 156.472 82.9123 157.441 80.1992C158.475 77.4861 159.961 75.0959 161.898 73.0288C163.836 70.9617 166.259 69.3144 169.166 68.087C172.073 66.8597 175.432 66.246 179.243 66.246C182.473 66.246 185.444 66.7951 188.158 67.8932C190.871 68.9914 193.196 70.5095 195.134 72.4474C197.072 74.3208 198.59 76.5171 199.688 79.0364C200.787 81.4912 201.336 84.1074 201.336 86.8851V88.6293C201.336 91.1486 200.883 93.571 199.979 95.8966C199.139 98.1575 197.944 100.128 196.394 101.807C194.844 103.487 193.002 104.843 190.871 105.877C188.804 106.846 186.543 107.33 184.088 107.33H182.731C180.923 107.33 180.018 108.299 180.018 110.237V117.408H172.266V108.299C172.266 105.845 173.042 103.842 174.592 102.292C176.142 100.741 178.145 99.9663 180.6 99.9663H183.119ZM169.456 130.004C169.456 128.131 170.102 126.548 171.394 125.256C172.751 123.9 174.366 123.222 176.239 123.222C178.113 123.222 179.695 123.9 180.987 125.256C182.344 126.548 183.022 128.131 183.022 130.004C183.022 131.878 182.344 133.493 180.987 134.849C179.695 136.141 178.113 136.787 176.239 136.787C174.366 136.787 172.751 136.141 171.394 134.849C170.102 133.493 169.456 131.878 169.456 130.004Z" fill="#122A0E"/>
<path d="M190.289 96.7686L189.549 96.096L189.544 96.1022L189.538 96.1085L190.289 96.7686ZM192.13 82.3309L191.197 82.6899L191.203 82.7054L191.209 82.7206L192.13 82.3309ZM189.32 77.9706L188.595 78.6593L188.604 78.6686L188.613 78.6777L189.32 77.9706ZM184.863 74.9668L184.457 75.8806L184.471 75.8869L184.486 75.8928L184.863 74.9668ZM168.1 78.0675L168.831 78.7492L168.1 78.0675ZM164.127 93.3772V94.3772H165.127V93.3772H164.127ZM155.988 93.3772H154.988V94.3772H155.988V93.3772ZM157.441 80.1992L156.507 79.8432L156.503 79.853L156.499 79.8629L157.441 80.1992ZM161.898 73.0288L161.169 72.3449L161.898 73.0288ZM169.166 68.087L168.777 67.1658L169.166 68.087ZM195.134 72.4474L194.427 73.1545L194.433 73.1605L194.439 73.1664L195.134 72.4474ZM199.688 79.0364L198.772 79.436L198.776 79.4448L199.688 79.0364ZM199.979 95.8966L199.047 95.5341L199.044 95.5412L199.042 95.5484L199.979 95.8966ZM196.394 101.807L197.129 102.486H197.129L196.394 101.807ZM190.871 105.877L191.295 106.783L191.307 106.777L190.871 105.877ZM180.018 117.408V118.408H181.018V117.408H180.018ZM172.266 117.408H171.266V118.408H172.266V117.408ZM174.592 102.292L175.299 102.999L174.592 102.292ZM171.394 125.256L170.687 124.549L171.394 125.256ZM180.987 125.256L180.263 125.946L180.28 125.964L180.298 125.981L180.987 125.256ZM180.987 134.849L181.694 135.556L180.987 134.849ZM171.394 134.849L170.67 135.539L170.687 135.557L170.705 135.573L171.394 134.849ZM183.119 100.966C186.305 100.966 188.972 99.7825 191.041 97.4288L189.538 96.1085C187.86 98.0183 185.746 98.9663 183.119 98.9663V100.966ZM191.029 97.4413C193.168 95.0884 194.196 92.0205 194.196 88.3386H192.196C192.196 91.6333 191.286 94.1854 189.549 96.096L191.029 97.4413ZM194.196 88.3386V87.7572H192.196V88.3386H194.196ZM194.196 87.7572C194.196 85.6939 193.817 83.7517 193.051 81.9413L191.209 82.7206C191.865 84.2693 192.196 85.9446 192.196 87.7572H194.196ZM193.064 81.972C192.369 80.1667 191.357 78.5934 190.027 77.2635L188.613 78.6777C189.738 79.8024 190.599 81.1361 191.197 82.6899L193.064 81.972ZM190.045 77.2818C188.715 75.8812 187.108 74.8017 185.24 74.0407L184.486 75.8928C186.106 76.553 187.471 77.476 188.595 78.6593L190.045 77.2818ZM185.269 74.0529C183.383 73.2146 181.305 72.804 179.049 72.804V74.804C181.058 74.804 182.855 75.1685 184.457 75.8806L185.269 74.0529ZM179.049 72.804C174.18 72.804 170.243 74.3008 167.368 77.3857L168.831 78.7492C171.254 76.1495 174.616 74.804 179.049 74.804V72.804ZM167.368 77.3857C164.514 80.4485 163.127 84.4563 163.127 89.3076H165.127C165.127 84.8566 166.388 81.371 168.831 78.7492L167.368 77.3857ZM163.127 89.3076V93.3772H165.127V89.3076H163.127ZM164.127 92.3772H155.988V94.3772H164.127V92.3772ZM156.988 93.3772V88.7262H154.988V93.3772H156.988ZM156.988 88.7262C156.988 85.8656 157.454 83.1373 158.383 80.5355L156.499 79.8629C155.491 82.6873 154.988 85.6437 154.988 88.7262H156.988ZM158.376 80.5552C159.364 77.9606 160.781 75.6826 162.628 73.7127L161.169 72.3449C159.14 74.5093 157.585 77.0115 156.507 79.8432L158.376 80.5552ZM162.628 73.7127C164.46 71.7587 166.762 70.1875 169.555 69.0083L168.777 67.1658C165.756 68.4414 163.213 70.1646 161.169 72.3449L162.628 73.7127ZM169.555 69.0083C172.316 67.8425 175.538 67.246 179.243 67.246V65.246C175.325 65.246 171.83 65.8768 168.777 67.1658L169.555 69.0083ZM179.243 67.246C182.358 67.246 185.2 67.775 187.782 68.8202L188.533 66.9663C185.689 65.8151 182.588 65.246 179.243 65.246V67.246ZM187.782 68.8202C190.38 69.8715 192.59 71.3177 194.427 73.1545L195.841 71.7403C193.802 69.7013 191.362 68.1113 188.533 66.9663L187.782 68.8202ZM194.439 73.1664C196.281 74.947 197.725 77.0342 198.772 79.436L200.605 78.6369C199.456 76 197.863 73.6945 195.829 71.7284L194.439 73.1664ZM198.776 79.4448C199.814 81.7668 200.336 84.2434 200.336 86.8851H202.336C202.336 83.9714 201.759 81.2155 200.601 78.6281L198.776 79.4448ZM200.336 86.8851V88.6293H202.336V86.8851H200.336ZM200.336 88.6293C200.336 91.0258 199.906 93.3253 199.047 95.5341L200.911 96.259C201.861 93.8168 202.336 91.2714 202.336 88.6293H200.336ZM199.042 95.5484C198.245 97.694 197.116 99.5505 195.659 101.129L197.129 102.486C198.772 100.705 200.034 98.621 200.917 96.2448L199.042 95.5484ZM195.659 101.129C194.197 102.713 192.458 103.996 190.434 104.977L191.307 106.777C193.547 105.691 195.49 104.26 197.129 102.486L195.659 101.129ZM190.446 104.972C188.522 105.874 186.407 106.33 184.088 106.33V108.33C186.678 108.33 189.085 107.818 191.295 106.782L190.446 104.972ZM184.088 106.33H182.731V108.33H184.088V106.33ZM182.731 106.33C181.654 106.33 180.668 106.622 179.965 107.375C179.275 108.115 179.018 109.131 179.018 110.237H181.018C181.018 109.406 181.214 108.969 181.428 108.739C181.629 108.523 181.999 108.33 182.731 108.33V106.33ZM179.018 110.237V117.408H181.018V110.237H179.018ZM180.018 116.408H172.266V118.408H180.018V116.408ZM173.266 117.408V108.299H171.266V117.408H173.266ZM173.266 108.299C173.266 106.075 173.959 104.339 175.299 102.999L173.885 101.585C172.124 103.346 171.266 105.614 171.266 108.299H173.266ZM175.299 102.999C176.639 101.659 178.375 100.966 180.6 100.966V98.9663C177.914 98.9663 175.646 99.8236 173.885 101.585L175.299 102.999ZM180.6 100.966H183.119V98.9663H180.6V100.966ZM170.456 130.004C170.456 128.389 171.002 127.063 172.101 125.964L170.687 124.549C169.203 126.034 168.456 127.873 168.456 130.004H170.456ZM172.101 125.964C173.276 124.789 174.638 124.222 176.239 124.222V122.222C174.094 122.222 172.226 123.01 170.687 124.549L172.101 125.964ZM176.239 124.222C177.839 124.222 179.16 124.788 180.263 125.946L181.711 124.567C180.231 123.012 178.386 122.222 176.239 122.222V124.222ZM180.298 125.981C181.456 127.084 182.022 128.405 182.022 130.004H184.022C184.022 127.857 183.232 126.013 181.677 124.532L180.298 125.981ZM182.022 130.004C182.022 131.605 181.454 132.968 180.28 134.142L181.694 135.556C183.233 134.017 184.022 132.15 184.022 130.004H182.022ZM180.28 134.142C179.181 135.241 177.855 135.787 176.239 135.787V137.787C178.37 137.787 180.21 137.041 181.694 135.556L180.28 134.142ZM176.239 135.787C174.623 135.787 173.255 135.24 172.084 134.125L170.705 135.573C172.247 137.042 174.109 137.787 176.239 137.787V135.787ZM172.119 134.16C171.004 132.989 170.456 131.621 170.456 130.004H168.456C168.456 132.135 169.201 133.996 170.67 135.539L172.119 134.16Z" fill="#122A0E" mask="url(#path-4-outside-1_158_69)"/>
<path d="M237.313 183.349L221.672 136.426C221.489 135.876 221.989 135.343 222.549 135.489L272.915 148.689C273.46 148.832 273.645 149.512 273.246 149.911L264.071 159.086C263.79 159.367 263.785 159.82 264.06 160.107L279.837 176.569C280.118 176.863 280.105 177.33 279.808 177.607L264.098 192.292C263.804 192.567 263.343 192.552 263.068 192.258L248 176.163C247.729 175.874 247.278 175.853 246.982 176.116L238.49 183.664C238.099 184.012 237.479 183.846 237.313 183.349Z" stroke="#122A0E" stroke-width="11" stroke-linecap="round"/>
<path d="M81.8833 39.5645V153.754C81.8833 158.993 86.1301 163.24 91.3687 163.24H228.543" stroke="#122A0E" stroke-width="12" stroke-linecap="round"/>
</svg>
