<?xml version="1.0" encoding="UTF-8"?>
<svg id="Layer_1" data-name="Layer 1" xmlns="http://www.w3.org/2000/svg" viewBox="0 0 76 58.48">
  <defs>
    <style>
      .cls-1 {
        fill: none;
        stroke: #6ae367;
        stroke-miterlimit: 10;
        stroke-width: 2px;
      }
    </style>
  </defs>
  <rect class="cls-1" x="61" y="33.48" width="14" height="24" rx="3.65" ry="3.65"/>
  <line class="cls-1" x1="61" y1="38.48" x2="75" y2="38.48"/>
  <line class="cls-1" x1="61" y1="51.48" x2="75" y2="51.48"/>
  <rect class="cls-1" x="33.22" y="22.98" width="23.28" height="34.15" rx="3.65" ry="3.65"/>
  <line class="cls-1" x1="33.22" y1="30.1" x2="56.5" y2="30.1"/>
  <line class="cls-1" x1="33.22" y1="48.6" x2="56.5" y2="48.6"/>
  <line class="cls-1" x1="20.5" y1="56.98" x2="29.5" y2="56.98"/>
  <line class="cls-1" x1="24" y1="56.98" x2="26" y2="46.48"/>
  <line class="cls-1" x1="1" y1="38.48" x2="29" y2="38.48"/>
  <path class="cls-1" d="M66.5,28.98V3.53c0-1.4-1.14-2.54-2.55-2.53L3.58,1.48c-1.43,0-2.58,1.16-2.58,2.58v39.92c0,1.38,1.12,2.5,2.5,2.5h25"/>
</svg>