<?xml version="1.0" encoding="UTF-8"?>
<svg xmlns="http://www.w3.org/2000/svg" viewBox="0 0 70.5 63.5">
  <defs>
    <style>
      .cls-1 {
        stroke-width: 3px;
      }

      .cls-1, .cls-2 {
        stroke: #0ce553;
      }

      .cls-1, .cls-2, .cls-3 {
        fill: #122a0e;
        stroke-miterlimit: 10;
      }

      .cls-3 {
        stroke: #122a0e;
      }
    </style>
  </defs>
  <g id="Layer_2" data-name="Layer 2">
    <rect class="cls-1" x="1.5" y="11.5" width="58" height="10" rx="3.61" ry="3.61"/>
    <rect class="cls-1" x="2" y="22" width="58" height="10" rx="2.79" ry="2.79"/>
    <rect class="cls-1" x="6.5" y="1.5" width="48" height="10" rx="3.27" ry="3.27"/>
    <circle class="cls-2" cx="47.75" cy="26.75" r="1.75"/>
    <line class="cls-2" x1="54.05" y1="27.1" x2="49.15" y2="27.1"/>
    <circle class="cls-2" cx="47.75" cy="16.75" r="1.75"/>
    <line class="cls-2" x1="54.05" y1="17.1" x2="49.15" y2="17.1"/>
    <rect class="cls-2" x="7" y="26" width="36" height="2"/>
    <rect class="cls-2" x="7" y="16" width="36" height="2"/>
  </g>
  <g id="Layer_3" data-name="Layer 3">
    <circle class="cls-3" cx="49.5" cy="42.5" r="20.5"/>
  </g>
  <g id="Layer_4" data-name="Layer 4">
    <g>
      <path class="cls-2" d="M68,43c0,9.94-8.28,18-18.5,18s-18.5-8.06-18.5-18,8.28-18,18.5-18v18s18.5,0,18.5,0Z"/>
      <path class="cls-2" d="M52,22.96v17.54l16.19-.9c-.56-2.09-1.92-6.09-5.4-9.9-4.05-4.43-8.7-6.13-10.79-6.75Z"/>
    </g>
  </g>
</svg>