<?xml version="1.0" encoding="UTF-8"?>
<svg xmlns="http://www.w3.org/2000/svg" viewBox="0 0 87 76.13">
  <defs>
    <style>
      .cls-1 {
        fill: none;
      }

      .cls-1, .cls-2, .cls-3 {
        stroke: #6ae367;
        stroke-miterlimit: 10;
        stroke-width: 2px;
      }

      .cls-4 {
        font-family: Impact, Impact;
        font-size: 12px;
        stroke: #122a0e;
      }

      .cls-4, .cls-5, .cls-2 {
        fill: #6ae367;
      }

      .cls-3 {
        fill: #122a0e;
      }
    </style>
  </defs>
  <g id="jord">
    <circle class="cls-3" cx="28" cy="44" r="27"/>
    <g>
      <path class="cls-5" d="M24.43,23.92c2.26-1.23,4.25-2.95,5.79-5-2.25,2.52-4.92,5.24-8.3,5.25-1.01,0-2.08-.24-3.02.15-2.02.84-1.79,4.05-.12,5.47s4.01,1.59,6.18,1.87c7.94,1.05,15.55,4.51,21.57,9.8.75.66,1.54,1.52,1.42,2.51-.17,1.35-1.78,1.87-2.99,2.5-6.38,3.36-4.31,14.64-10.63,18.12-.48.27-1.03.48-1.57.41-1.81-.23-1.87-2.77-1.92-4.59-.09-3.24-1.72-6.2-3.3-9.02-1.37-2.44-2.74-4.88-4.12-7.32-2.8-4.98-6.73-10.63-12.44-10.45.97-2.35-.66-5.39-3.16-5.89,5.88-5.73,13.92-9.2,22.12-9.56l-5.52,5.75Z"/>
      <path class="cls-5" d="M25.19,25.22c2.37-1.33,4.44-3.09,6.1-5.23,1.14-1.48-.8-3.6-2.12-2.12-1.42,1.58-2.91,3.25-4.84,4.21s-4.21,0-6.17.95c-3.56,1.72-2.3,6.76.49,8.51,1.9,1.19,4.18,1.33,6.33,1.63s4.35.81,6.46,1.47c4.35,1.37,8.47,3.51,12.1,6.29.84.65,1.8,1.32,2.5,2.13.84.97-.07,1.26-.95,1.7-1.46.73-2.7,1.57-3.7,2.87-1.95,2.53-2.67,5.74-3.58,8.74-.44,1.46-.9,2.92-1.66,4.25-.33.59-.71,1.14-1.18,1.62-.38.39-1.34,1.35-1.94,1.26-.94-.15-.7-3.62-.81-4.39-.32-2.39-1.3-4.61-2.43-6.72-1.39-2.62-2.9-5.19-4.35-7.78-1.16-2.06-2.32-4.12-3.74-6.01-2.62-3.49-6.11-6.52-10.72-6.47l1.45,1.9c1.16-3.21-.92-6.93-4.21-7.73l.66,2.51c5.67-5.45,13.2-8.73,21.06-9.12l-1.06-2.56c-1.84,1.92-3.68,3.83-5.52,5.75-1.34,1.39.78,3.52,2.12,2.12,1.84-1.92,3.68-3.83,5.52-5.75.86-.89.28-2.63-1.06-2.56-8.66.43-16.93,3.99-23.18,10-.8.77-.43,2.24.66,2.51,1.8.44,2.73,2.33,2.11,4.04-.33.92.53,1.91,1.45,1.9,4.06-.05,6.97,3.21,9.08,6.32,1.25,1.85,2.3,3.81,3.4,5.75,1.33,2.36,2.71,4.69,3.96,7.1,1.12,2.16,1.85,4.28,1.94,6.72.07,1.67.22,3.64,1.61,4.79,3.1,2.57,6.91-1.83,8.15-4.39,1.41-2.9,1.96-6.11,3.1-9.11.51-1.34,1.21-2.69,2.28-3.67,1.25-1.15,3.08-1.43,4.19-2.77,1.54-1.86.47-4.03-1.09-5.45-1.67-1.52-3.53-2.87-5.44-4.08-3.9-2.46-8.23-4.29-12.71-5.36-2.48-.59-5.08-.67-7.54-1.31-.99-.26-2.11-.67-2.62-1.63-.29-.54-.55-1.57-.08-2.1.63-.7,2.27-.21,3.1-.26,1.25-.08,2.43-.44,3.54-1,2.15-1.09,3.86-2.91,5.45-4.68l-2.12-2.12c-1.52,1.96-3.33,3.55-5.49,4.76-1.68.94-.17,3.54,1.51,2.59Z"/>
    </g>
  </g>
  <g id="sky">
    <path class="cls-3" d="M72.5,9c-.51,0-1.02.03-1.51.08-.13-4.48-4.1-8.08-8.99-8.08-4.42,0-8.08,2.94-8.85,6.81-1.18-1.12-2.83-1.81-4.65-1.81-3.59,0-6.5,2.69-6.5,6,0,.04,0,.08,0,.12-4.54.66-8.01,4.28-8.01,8.65,0,4.84,4.25,8.77,9.5,8.77,0,0,0,0,.01,0,0,.08-.01.15-.01.23,0,3.19,2.8,5.77,6.25,5.77,2.38,0,4.44-1.22,5.5-3.03,1.06,1.8,3.12,3.03,5.5,3.03s4.45-1.23,5.5-3.04c1.87.9,3.99,1.42,6.25,1.42,7.46,0,13.5-5.58,13.5-12.46s-6.04-12.46-13.5-12.46Z"/>
    <path class="cls-3" d="M20.1,63.53c-.22,0-.44.01-.66.04-.06-1.96-1.79-3.53-3.93-3.53-1.8,0-3.31,1.11-3.78,2.63-.05.16-.23.22-.36.12-.48-.35-1.09-.56-1.76-.56-1.57,0-2.84,1.17-2.84,2.62,0,.02,0,.03,0,.05-1.98.29-3.5,1.87-3.5,3.78,0,2.12,1.86,3.83,4.15,3.83,0,0,0,0,0,0,0,.03,0,.07,0,.1,0,1.39,1.22,2.52,2.73,2.52.98,0,1.84-.48,2.32-1.19.04-.06.12-.06.16,0,.48.72,1.34,1.19,2.32,1.19.78,0,1.48-.3,1.98-.79.31-.3.78-.37,1.19-.23.61.2,1.27.31,1.96.31,3.26,0,5.9-2.44,5.9-5.45s-2.64-5.45-5.9-5.45Z"/>
    <path class="cls-3" d="M16.65,11.09c-.21.07-.42.15-.62.23-.64-1.85-2.76-2.84-4.8-2.21-1.33.42-2.3,1.42-2.67,2.6-.21.67-.85,1.08-1.56,1.11-.25.01-.51.06-.76.14-1.5.47-2.36,1.97-1.93,3.35,0,.02.01.03.02.05-1.81.87-2.79,2.83-2.22,4.65.63,2.02,2.92,3.11,5.11,2.43,0,0,0,0,0,0,0,.03.01.07.02.1.41,1.33,1.92,2.04,3.36,1.6.62-.19,1.13-.57,1.47-1.04.3-.41.8-.6,1.28-.42.56.21,1.21.24,1.84.04.84-.26,1.47-.86,1.77-1.58.1-.24.35-.37.61-.35.75.05,1.54-.03,2.31-.27,3.11-.97,4.91-4.08,4.01-6.96s-4.14-4.42-7.25-3.45Z"/>
    <circle class="cls-1" cx="61" cy="19" r="5"/>
    <path class="cls-1" d="M52.82,22.88c-4.42,3.31-8.67-.54-8.67-3.49s3.15-7.55,8.67-4.24"/>
    <text class="cls-4" transform="translate(68.07 26.45)"><tspan x="0" y="0">2</tspan></text>
  </g>
  <g id="pil">
    <line class="cls-2" x1="65" y1="39" x2="65" y2="50"/>
    <polyline class="cls-1" points="69 47 65 51 61 47"/>
    <line class="cls-2" x1="75" y1="46" x2="75" y2="57"/>
    <polyline class="cls-1" points="79 54 75 58 71 54"/>
  </g>
</svg>