<svg width="85" height="86" viewBox="0 0 85 86" fill="none" xmlns="http://www.w3.org/2000/svg">
<path d="M65.195 14.7865C64.1863 14.7865 63.2003 15.0873 62.3616 15.6508C61.5229 16.2143 60.8692 17.0152 60.4832 17.9523C60.0972 18.8894 59.9962 19.9205 60.193 20.9153C60.3898 21.9101 60.8755 22.8239 61.5888 23.5411C62.302 24.2583 63.2107 24.7467 64.2 24.9446C65.1893 25.1424 66.2148 25.0409 67.1467 24.6527C68.0786 24.2646 68.8751 23.6073 69.4355 22.7639C69.9959 21.9206 70.295 20.9291 70.295 19.9148C70.295 18.5547 69.7577 17.2503 68.8012 16.2886C67.8448 15.3268 66.5476 14.7865 65.195 14.7865ZM84.745 25.1286C84.6623 21.5828 84.0019 18.0746 82.79 14.7438C81.7094 11.8939 80.0274 9.31329 77.86 7.17959C75.7555 4.98907 73.1831 3.3085 70.3375 2.26499C67.0338 1.00925 63.5411 0.329962 60.01 0.256414C55.505 -2.38804e-07 54.06 0 42.5 0C30.94 0 29.495 -2.38804e-07 24.99 0.256414C21.4589 0.329962 17.9662 1.00925 14.6625 2.26499C11.8221 3.31906 9.25197 4.9982 7.14 7.17959C4.96156 9.29577 3.29025 11.8824 2.2525 14.7438C1.00368 18.0658 0.328142 21.5779 0.255 25.1286C-2.37487e-07 29.6586 0 31.1116 0 42.7357C0 54.3598 -2.37487e-07 55.8128 0.255 60.3428C0.328142 63.8935 1.00368 67.4055 2.2525 70.7275C3.29025 73.5889 4.96156 76.1756 7.14 78.2917C9.25197 80.4731 11.8221 82.1523 14.6625 83.2064C17.9662 84.4621 21.4589 85.1414 24.99 85.2149C29.495 85.4713 30.94 85.4713 42.5 85.4713C54.06 85.4713 55.505 85.4713 60.01 85.2149C63.5411 85.1414 67.0338 84.4621 70.3375 83.2064C73.1831 82.1628 75.7555 80.4823 77.86 78.2917C80.037 76.166 81.7204 73.5831 82.79 70.7275C84.0019 67.3967 84.6623 63.8886 84.745 60.3428C84.745 55.8128 85 54.3598 85 42.7357C85 31.1116 85 29.6586 84.745 25.1286ZM77.095 59.8299C77.0641 62.5427 76.5754 65.2305 75.65 67.7788C74.9714 69.6386 73.8815 71.3191 72.4625 72.6934C71.084 74.1058 69.4162 75.1995 67.575 75.8986C65.0407 76.8291 62.3678 77.3204 59.67 77.3516C55.42 77.5652 53.8475 77.608 42.67 77.608C31.4925 77.608 29.92 77.608 25.67 77.3516C22.8688 77.4043 20.0795 76.9706 17.425 76.0695C15.6646 75.3348 14.0733 74.2438 12.75 72.8643C11.3394 71.4914 10.2631 69.8095 9.605 67.9497C8.56739 65.3649 7.99188 62.6161 7.905 59.8299C7.905 55.5564 7.65 53.9752 7.65 42.7357C7.65 31.4962 7.65 29.915 7.905 25.6414C7.92405 22.8681 8.42754 20.1197 9.3925 17.5216C10.1407 15.7178 11.2891 14.1099 12.75 12.8207C14.0412 11.3513 15.637 10.1843 17.425 9.40185C20.0156 8.46185 22.746 7.97054 25.5 7.94883C29.75 7.94883 31.3225 7.69242 42.5 7.69242C53.6775 7.69242 55.25 7.69242 59.5 7.94883C62.1978 7.97995 64.8707 8.47126 67.405 9.40185C69.3363 10.1226 71.0697 11.2944 72.4625 12.8207C73.8552 14.1334 74.9435 15.7384 75.65 17.5216C76.5946 20.1239 77.0835 22.8712 77.095 25.6414C77.3075 29.915 77.35 31.4962 77.35 42.7357C77.35 53.9752 77.3075 55.5564 77.095 59.8299ZM42.5 20.8123C38.1897 20.8207 33.9786 22.1137 30.3988 24.5278C26.819 26.9419 24.0311 30.3688 22.3874 34.3755C20.7438 38.3822 20.3181 42.7889 21.1641 47.0389C22.0102 51.2888 24.09 55.1911 27.1408 58.2529C30.1916 61.3147 34.0765 63.3984 38.3047 64.2409C42.5328 65.0834 46.9143 64.6467 50.8957 62.9861C54.8772 61.3256 58.2797 58.5156 60.6735 54.9112C63.0674 51.3069 64.345 47.0699 64.345 42.7357C64.3506 39.8515 63.7891 36.9946 62.6928 34.3294C61.5964 31.6642 59.9869 29.2432 57.9567 27.2057C55.9265 25.1683 53.5158 23.5545 50.8631 22.4573C48.2105 21.3601 45.3683 20.801 42.5 20.8123ZM42.5 56.9667C39.7009 56.9667 36.9647 56.132 34.6373 54.5683C32.3099 53.0046 30.496 50.782 29.4248 48.1816C28.3536 45.5813 28.0734 42.7199 28.6194 39.9593C29.1655 37.1988 30.5134 34.6631 32.4927 32.6728C34.4719 30.6826 36.9937 29.3272 39.739 28.7781C42.4843 28.229 45.3299 28.5109 47.9159 29.588C50.502 30.6651 52.7123 32.4891 54.2674 34.8294C55.8225 37.1696 56.6525 39.9211 56.6525 42.7357C56.6525 44.6045 56.2864 46.4551 55.5752 48.1816C54.864 49.9082 53.8215 51.477 52.5073 52.7985C51.1931 54.12 49.633 55.1682 47.9159 55.8834C46.1989 56.5986 44.3585 56.9667 42.5 56.9667Z" fill="#122A0E"/>
</svg>
