<svg width="86" height="86" viewBox="0 0 86 86" fill="none" xmlns="http://www.w3.org/2000/svg">
<path d="M79.6408 0.000597568H6.35915C5.5354 -0.0107042 4.71746 0.138407 3.95204 0.439417C3.18663 0.740427 2.48874 1.18744 1.89822 1.75492C1.3077 2.32241 0.836127 2.99925 0.510428 3.74679C0.184729 4.49434 0.0112838 5.29794 0 6.11171V79.3596C0.0112838 80.1734 0.184729 80.977 0.510428 81.7245C0.836127 82.4721 1.3077 83.1489 1.89822 83.7164C2.48874 84.2839 3.18663 84.7309 3.95204 85.0319C4.71746 85.3329 5.5354 85.482 6.35915 85.4707H79.6408C80.4646 85.482 81.2825 85.3329 82.048 85.0319C82.8134 84.7309 83.5113 84.2839 84.1018 83.7164C84.6923 83.1489 85.1639 82.4721 85.4896 81.7245C85.8153 80.977 85.9887 80.1734 86 79.3596V6.11171C85.9887 5.29794 85.8153 4.49434 85.4896 3.74679C85.1639 2.99925 84.6923 2.32241 84.1018 1.75492C83.5113 1.18744 82.8134 0.740427 82.048 0.439417C81.2825 0.138407 80.4646 -0.0107042 79.6408 0.000597568ZM26.0855 71.5391H13.1076V33.0775H26.0855V71.5391ZM19.5966 27.6929C17.8068 27.6929 16.0903 26.9905 14.8247 25.7403C13.5591 24.4901 12.8481 22.7944 12.8481 21.0263C12.8481 19.2581 13.5591 17.5624 14.8247 16.3122C16.0903 15.062 17.8068 14.3596 19.5966 14.3596C20.547 14.2531 21.5094 14.3461 22.4209 14.6326C23.3324 14.919 24.1723 15.3924 24.8857 16.0218C25.5992 16.6512 26.17 17.4223 26.5608 18.2847C26.9516 19.1471 27.1537 20.0814 27.1537 21.0263C27.1537 21.9711 26.9516 22.9054 26.5608 23.7678C26.17 24.6302 25.5992 25.4013 24.8857 26.0307C24.1723 26.6601 23.3324 27.1335 22.4209 27.4199C21.5094 27.7064 20.547 27.7994 19.5966 27.6929ZM72.8923 71.5391H59.9145V50.8981C59.9145 45.7271 58.0543 42.3511 53.339 42.3511C51.8797 42.3616 50.4588 42.8138 49.2676 43.6467C48.0764 44.4795 47.1723 45.6531 46.6771 47.0092C46.3385 48.0136 46.1918 49.0715 46.2445 50.1288V71.4964H33.2666C33.2666 71.4964 33.2666 36.5391 33.2666 33.0348H46.2445V38.4622C47.4234 36.4412 49.1381 34.7763 51.2039 33.6468C53.2697 32.5172 55.6083 31.9658 57.9678 32.0519C66.6197 32.0519 72.8923 37.5647 72.8923 49.4023V71.5391Z" fill="#122A0E"/>
</svg>
