<?xml version="1.0" encoding="UTF-8"?>
<svg xmlns="http://www.w3.org/2000/svg" viewBox="0 0 203.08 163.46">
  <defs>
    <style>
      .cls-1 {
        stroke-width: 2px;
      }

      .cls-1, .cls-2 {
        fill: none;
        stroke: #6ae367;
        stroke-miterlimit: 10;
      }

      .cls-3 {
        fill: #6ae367;
        font-family: MisterBlack, 'Mister Black';
        font-size: 29.1px;
      }

      .cls-4 {
        fill: #122a0e;
      }

      .cls-5 {
        fill: #fff;
      }
    </style>
  </defs>
  <g id="Layer_2" data-name="Layer 2">
    <g>
      <path class="cls-5" d="M187.87,115.57c.99-4.56,1.47-9.36,1.84-14.01.98-12.33,1.14-24.76,3.43-36.91.25-1.34.54-2.69,1.21-3.87.63-1.1,1.57-2,2.23-3.08s1.01-2.51.37-3.6c-.61-1.04-1.9-1.43-3.08-1.7-8.38-1.92-17.06-1.91-25.65-1.83-19.86.19-39.71.75-59.54,1.67-2.8.13-5.62.27-8.35.88-1.33.3-2.7.75-3.6,1.78s-1.07,2.78-.05,3.68c.72.63,1.81.69,2.52,1.32.63.56.84,1.45,1.01,2.28,2.4,11.87,3.49,24.02,3.24,36.13-.13,6.19-.61,12.38-.38,18.57.13,3.56.5,7.1,1.1,10.61l.05.29c0,3.46.61,6.37,1.7,9.65.32.95.68,1.89,1.3,2.68.75.95,1.81,1.6,2.93,2.07,2.38,1,5.01,1.21,7.59,1.37,12.17.72,24.37.32,36.55-.09,6.29-.21,12.59-.42,18.88-.63,3.54-.12,7.47-.4,9.93-2.96,1.55-1.62,2.21-3.88,2.72-6.06,1.42-6.07,2.1-11.74,2.02-17.97l.04-.28Z"/>
      <path class="cls-5" d="M189.32,115.97c2.58-12.14,2.36-24.75,3.45-37.06.28-3.18.62-6.37,1.09-9.53.39-2.63.54-5.91,2.01-8.2,1.39-2.17,3.58-4.09,2.75-6.96-.78-2.68-3.85-3.2-6.21-3.66-5.99-1.17-12.11-1.47-18.21-1.51s-12.59.09-18.88.2c-12.74.23-25.48.6-38.21,1.12-3.28.13-6.56.26-9.83.44-2.79.15-5.75.3-8.44,1.16-2.17.69-4.2,2.21-4.35,4.67-.06,1.06.26,2.13,1.02,2.9.83.83,2.5.91,2.98,1.98.52,1.15.59,2.69.82,3.92.29,1.59.56,3.18.81,4.78.47,3.06.85,6.14,1.14,9.22.59,6.27.82,12.58.69,18.88s-.62,12.54-.37,18.81c.13,3.12.44,6.24.91,9.33.4,2.63.38,5.28.99,7.91s1.31,5.72,3.38,7.54,4.97,2.55,7.7,2.88c6.17.76,12.53.69,18.74.67,12.8-.03,25.6-.64,38.39-1.06,4.67-.16,10.16-.21,13.22-4.35,1.64-2.22,2.21-5.03,2.77-7.68.6-2.84,1.05-5.72,1.33-8.61.13-1.38.23-2.76.28-4.14s-.09-2.73.08-4.05c.25-1.91-2.75-1.89-3,0-.15,1.17-.03,2.4-.06,3.58-.04,1.38-.13,2.77-.25,4.15-.26,2.86-.72,5.69-1.32,8.49-.5,2.32-.93,5.04-2.57,6.88-1.46,1.65-3.72,2.23-5.83,2.47-2.69.31-5.43.28-8.14.37-2.98.1-5.96.2-8.94.3-5.94.2-11.87.41-17.81.54s-11.86.17-17.78-.02c-2.88-.09-5.79-.16-8.66-.48-2.51-.28-5.77-.93-7.06-3.38-1.2-2.26-1.79-5.2-2.07-7.73-.13-1.16-.06-2.35-.23-3.49-.22-1.44-.46-2.87-.62-4.31-.67-5.91-.54-11.84-.31-17.78.46-11.66.16-23.22-1.55-34.78-.42-2.87-.89-5.75-1.5-8.59-.23-1.07-.57-2.17-1.4-2.94-.36-.33-.78-.57-1.23-.77s-1.26-.35-1.49-.82c-1.64-3.43,11.82-3.55,13.36-3.62,11.98-.54,23.97-.94,35.97-1.22,5.96-.14,11.91-.24,17.87-.31s11.57-.18,17.34.18c2.96.18,5.91.5,8.82,1.03,1.2.22,2.48.4,3.64.82,1.32.48,1.49,1.44.84,2.64-.57,1.05-1.46,1.88-2.1,2.88-.73,1.15-1.14,2.46-1.43,3.79-.59,2.78-.98,5.61-1.34,8.43-1.48,11.57-1.52,23.25-2.77,34.84-.31,2.84-.72,5.66-1.31,8.45-.4,1.88,2.49,2.69,2.89.8Z"/>
    </g>
    <path class="cls-5" d="M14.33,141.29c-2.53-.53-4.05-.21-4.21.63-.1.45-.13,1.86.31,3.08.39,1.19,1.07,2.1,1.07,2.1,0,0,.59.88,1.33,1.55.74.7,1.51,1.2,1.77,1.33.49.25,1.44-.76,2.99-2.74.94-2.33,1.47-3.59,1.25-3.8-.13-.12-.51-.38-.69-.55-.2-.18-.26-.25-.26-.25,0,0,0-.04,0-.06,0,0,.01.01-.02.01-.03,0-.38-.04-1-.23-.61-.18-1.5-.5-2.55-1.06Z"/>
    <path class="cls-5" d="M2.27,151.07c-.95.88-1.63,1.69-2,2.41-.34.7-.39,1.35-.05,1.9.36.61,1.64,2.29,3.1,3.51.71.63,1.46,1.15,2.01,1.51.57.35.93.58.93.58,0,0,.38.21.96.53.59.3,1.41.7,2.31,1,1.79.67,3.89.95,4.59.96.65.02,1.18-.34,1.63-.98.45-.67.81-1.66,1.11-2.93-.55-1.22-.89-2.16-1.19-2.8-.31-.67-.56-1.01-.92-1.07-.39-.06-1.56-.21-2.62-.59-.53-.17-1.02-.4-1.37-.57-.35-.18-.58-.3-.58-.3,0,0-.21-.14-.54-.36-.32-.23-.76-.53-1.17-.91-.85-.73-1.56-1.68-1.81-1.98-.23-.28-.65-.34-1.39-.27-.71.05-1.69.22-3.02.35Z"/>
    <g>
      <path class="cls-5" d="M74.02,75.9l2.99-1.37c.3-.14.6-.28.82-.52.17-.19.28-.43.38-.66.81-1.85,1.62-3.7,2.43-5.55l-.03-.2c-1.2-1.32-2.49-2.69-4.2-3.2-2.34-.69-5.09.7-5.94,2.98.4-.06.77-.28,1-.61-.31,2.16-1.17,4.24-2.48,5.99-.9-1.18-1.64-2.66-2.54-3.84l-.35-.71c-.18-1.43-.63-1.84-1.28-3.12-.41-.81-.92-1.59-1.18-2.46-.53-1.73-.08-3.6.38-5.36l.09-.54c.61-2.16,1.01-3.94,1.62-6.1.35-1.24.87-2.66,2.1-3.04.47-.14.99-.12,1.41-.37.33-.2.54-.54.74-.86.49-.8.98-1.61,1.47-2.41.11-.18.22-.36.23-.57.02-.35-.25-.64-.51-.88-1.22-1.09-2.73-1.87-4.33-2.24-.35-.08-.72-.14-1.04.02-.35.17-.54.54-.71.89-2.76,5.64-5.51,11.28-8.27,16.92-.26.54-.53,1.1-.59,1.69-.07.64.11,1.28.28,1.9.4,1.44.93,2.32,1.33,3.77l.06.6c.14,3.81,3.11,6.95,3.79,10.7.4,2.21-.02,4.5.27,6.73.3,2.39,1.4,4.85.59,7.12l-.03-.05c.24,1.71-1.08,3.21-2.37,4.34-2.79,2.46-5.36,4.39-8.74,5.93l-.27.2c-8.45,6.99-17.2,14.13-25.65,21.11l1.28.53c-1.21,1.54-3.58,1.81-4.75,3.38-.64.86-.81,1.98-.96,3.05-.25,1.81-.51,3.63-.76,5.44-.07.47-.13.95-.01,1.41.09.37.3.69.5,1.01.48.76.97,1.53,1.45,2.29.25.39.66.84,1.09.66.24-.1.36-.37.45-.61.89-2.37,1.42-4.86,2.33-7.22s2.28-4.65,4.42-6c1.15-.73,2.47-1.15,3.65-1.82.85-.49,1.62-1.1,2.39-1.71,2.32-1.85,4.65-3.7,6.97-5.55,1.76-1.4,3.55-2.82,5.61-3.73,1.86-.83,4.01-1.29,5.34-2.83l.27-.25c2.86-.59,5.11-1.83,7.29-3.77-.26-.01-.53-.02-.79-.03,2.87-1.42,5.8-2.85,8.97-3.27,2.59-.34,4.98.23,7.5-.43l.27-.11c2.72-.88,5.58-1.34,8.44-1.36.49,0,1.18.24,1.05.72-1.87-.34-3.84-.02-5.51.88-.88.47-1.67,1.1-2.45,1.72-2.02,1.6-4.04,3.21-6.06,4.81-.1.08-.21.17-.26.29-.08.22.06.45.2.64,2.3,3.27,3.77,7.12,4.25,11.08,1.88-.49,2.4-2.94,2.13-4.86s-.95-3.96-.15-5.73c.51.49.7,1.29.47,1.97,3.95-3.83,8.35-7.19,13.08-9.99l.3-.22c1.68-.98,3.18-2.17,3.38-4.1.17-1.68-1.09-3.24-2.61-3.96s-3.26-.8-4.94-.86c-5-.18-10-.37-15-.55.89-1.77,1.77-3.54,2.66-5.31,1-1.99,2.02-4.25,1.32-6.36l.25-.12c-.12-.72-.65-1.3-1.16-1.83-1.1-1.15-2.21-2.3-3.31-3.45"/>
      <path class="cls-5" d="M74.78,77.2c1.24-.57,2.82-1.01,3.87-1.91.99-.85,1.38-2.37,1.88-3.52.28-.64.56-1.28.84-1.92s.75-1.34.76-2.04c.03-1.11-1.08-1.97-1.81-2.66-1.73-1.64-3.85-2.72-6.28-2.31s-4.13,2-5.03,4.15c-.46,1.11.85,2.1,1.85,1.85.66-.17,1.21-.49,1.66-1l-2.51-1.46c-.34,2.09-1.09,3.92-2.33,5.63h2.59c-.91-1.23-1.82-2.59-2.58-3.91-.23-.41-.2-.6-.3-1.03-.17-.73-.57-1.4-.93-2.05-.72-1.32-1.58-2.6-1.59-4.15,0-1.4.43-2.84.79-4.19.46-1.73.89-3.46,1.37-5.18.15-.56.29-1.13.54-1.65.42-.87.87-.76,1.71-1.02,1.52-.47,2.18-2.05,2.94-3.3.89-1.46,1.34-2.73-.03-4.07-1.73-1.69-6.3-4.28-8.15-1.54-.92,1.37-1.53,3.04-2.25,4.52-.87,1.78-1.74,3.56-2.61,5.34-.8,1.63-1.6,3.27-2.39,4.9s-2.17,3.63-2.11,5.6c.04,1.54.76,2.99,1.29,4.41.45,1.21.42,2.44.75,3.7.89,3.4,3.37,6.23,3.6,9.82.13,2.05-.11,4.08.22,6.12s1.14,3.92.53,5.9l2.74-.36-.03-.05c-.67-1.3-2.9-.72-2.8.76.14,1.93-1.89,3.28-3.21,4.38s-2.74,2.16-4.24,3.06c-1.3.78-2.69,1.32-3.87,2.28-1.7,1.39-3.38,2.79-5.07,4.18-6.73,5.54-13.49,11.07-20.21,16.63-.97.8-.26,2.12.66,2.51l1.28.53-.66-2.51c-1.38,1.6-3.73,1.86-4.98,3.68-.7,1.02-.94,2.21-1.11,3.41-.24,1.65-.46,3.3-.69,4.94-.19,1.36-.3,2.5.37,3.75.6,1.1,1.4,2.65,2.36,3.46.85.72,2.12.8,2.93-.03.9-.92,1.17-2.64,1.52-3.83.78-2.6,1.45-5.29,3.04-7.54s3.95-2.75,6.15-4.12c2.48-1.54,4.7-3.62,6.98-5.43s4.55-3.88,7.22-5.16c1.29-.62,2.7-.99,3.97-1.67.55-.29,1.08-.65,1.55-1.06.18-.16.35-.38.53-.53.36-.29.16.02.02.05,2.86-.63,5.37-2.16,7.54-4.07,1.03-.9.16-2.51-1.06-2.56-.26-.01-.53-.02-.79-.03l.76,2.8c2.07-1.02,4.15-2.05,6.39-2.66,2.09-.57,4.12-.47,6.26-.49,1.99-.02,3.68-.56,5.58-1.04,1.1-.28,2.22-.49,3.36-.62.63-.07,1.27-.12,1.9-.14.32-.01.64-.02.95-.02.43.12.28-.14-.45-.78l1.9-1.45c-2.52-.39-5.03-.02-7.22,1.35-2.46,1.54-4.66,3.59-6.93,5.39-.98.78-2.25,1.5-1.97,2.94.23,1.19,1.35,2.35,1.92,3.42,1.28,2.41,2.13,5.07,2.48,7.77.12.9.87,1.78,1.9,1.45,2.05-.68,3.04-2.5,3.25-4.57.24-2.37-1.11-4.78-.23-7.07l-2.51.66c.14.15.17.32.08.51-.35,1.45,1.41,2.51,2.51,1.46,3.34-3.22,6.97-6.1,10.88-8.59,2.77-1.76,6.64-3.58,6.31-7.49-.38-4.52-5.4-5.47-9.04-5.62-5-.2-10-.37-15-.55l1.3,2.26c1.09-2.17,2.25-4.32,3.24-6.54.91-2.02,1.49-4.1.89-6.29l-.69,1.69.25-.12c.59-.29.85-1.09.69-1.69-.31-1.17-1.07-1.99-1.88-2.84-.99-1.04-1.99-2.07-2.98-3.1-1.34-1.39-3.46.73-2.12,2.12.77.8,1.54,1.61,2.32,2.41.62.65,1.54,1.32,1.77,2.2l.69-1.69-.25.12c-.59.29-.85,1.09-.69,1.69.5,1.83-.37,3.59-1.17,5.2-.88,1.77-1.77,3.54-2.66,5.31-.51,1.03.11,2.21,1.3,2.26,4.19.16,8.39.31,12.58.47,1.9.07,3.94-.05,5.79.47,1.4.39,3.09,1.56,2.6,3.24-.38,1.29-1.72,2-2.78,2.67-1.53.97-3.08,1.91-4.57,2.95-3.15,2.2-6.12,4.66-8.89,7.32l2.51,1.46c.31-1.31,0-2.41-.85-3.42-.8-.94-2.14-.29-2.51.66-.76,1.95-.27,3.92.06,5.91.17,1.04.33,3.21-.99,3.64l1.9,1.45c-.28-2.2-.76-4.33-1.57-6.4-.39-.98-.82-1.95-1.31-2.89-.27-.5-.55-1-.86-1.48-.11-.18-.71-1.15-.7-.96l-.44,1.06c.86-.98,2.08-1.74,3.09-2.55,1.07-.85,2.14-1.71,3.22-2.56,1.92-1.51,3.98-2.6,6.5-2.21.95.15,1.89-.38,1.9-1.45.02-2.76-3.64-2.25-5.41-2.06-1.4.15-2.79.38-4.15.72-1.17.29-2.27.77-3.47.88-2.6.24-5.13-.12-7.7.48-2.73.64-5.27,1.9-7.77,3.13-1.41.69-.63,2.74.76,2.8.26.01.53.02.79.03l-1.06-2.56c-1.7,1.49-3.62,2.63-5.82,3.2-.89.23-1.34.49-1.99,1.1-.84.79-1.93,1.19-2.99,1.6-4.79,1.84-8.57,5.39-12.54,8.55-1.95,1.56-3.77,3.02-6.06,4.07-2.07.95-3.71,2.21-5.02,4.09s-2.13,4.2-2.8,6.43c-.37,1.21-.7,2.43-1.11,3.63.03-.1-.3.73-.27.78l1.16-.29-.24-.38c-.27-.67-.84-1.28-1.21-1.91-.71-1.2-.11-2.9.07-4.23.19-1.39.25-2.92.7-4.26.38-1.12,1.29-1.55,2.27-2.06s1.95-1.06,2.69-1.91c.8-.92.41-2.07-.66-2.51l-1.28-.53.66,2.51c7.1-5.87,14.23-11.7,21.34-17.56,1.43-1.18,2.87-2.7,4.47-3.62s3.32-1.75,4.89-2.88c2.73-1.97,7.05-4.76,6.78-8.6l-2.8.76.03.05c.61,1.19,2.38.82,2.74-.36.97-3.15-.62-6.27-.64-9.44-.01-1.75.11-3.48-.22-5.21-.27-1.42-.85-2.77-1.46-4.07-.56-1.2-1.21-2.36-1.67-3.6s-.45-2.4-.71-3.63c-.28-1.3-.97-2.49-1.33-3.77-.27-.95-.24-1.55.16-2.44.44-.98.94-1.93,1.41-2.89,1.56-3.19,3.12-6.38,4.68-9.57.4-.82.8-1.63,1.2-2.45.18-.37.36-.74.54-1.11.11-.22.35-1.03.57-1.15.02,0,1.25.44,1.51.56.66.3,1.61.76,2.09,1.34l.05-.37c-.16.27-.33.54-.49.8-.16.27-.33.54-.49.8s-.43.95-.7,1.12c-.26.17-.74.13-1.04.22-1.22.37-2.06,1.35-2.57,2.48-1.14,2.51-1.66,5.49-2.28,8.17-.38,1.64-.82,3.27-.64,4.96s1,3.04,1.77,4.46c.29.54.64,1.05.8,1.65.15.55.24,1.06.52,1.57.76,1.39,1.72,2.81,2.66,4.09.7.95,1.89.96,2.59,0,1.37-1.89,2.27-4.05,2.64-6.35.21-1.33-1.42-2.71-2.51-1.46-.06.15-.17.23-.34.23l1.85,1.85c.57-1.36,2.21-2.22,3.65-2.03.84.11,1.59.59,2.22,1.13.34.29.66.61.98.93.18.19.35.37.53.56-.1-.31-.13-.37-.09-.18l.15-1.16c-.72,1.64-1.43,3.27-2.15,4.91-.38.86-.52,1.09-1.37,1.48s-1.71.78-2.56,1.17c-1.75.8-.23,3.39,1.51,2.59h0Z"/>
    </g>
    <path class="cls-1" d="M85.97,23.35c.58-1.55,2.27-3.39,3.76-4.09l1.04-.49c1.49-.7,2.74-1.29,2.78-1.31s1.35.39,2.92.89l7.23,2.33c1.57.51,2.39,2.19,1.82,3.74l-7.47,20.24c-.57,1.55-2.32,2.4-3.89,1.89l-12.18-3.93c-1.57-.51-2.38-2.19-1.81-3.73l5.79-15.54Z"/>
    <line class="cls-2" x1="94.57" y1="46.62" x2="97.94" y2="44.94"/>
    <line class="cls-2" x1="91.14" y1="45.44" x2="98.94" y2="41.49"/>
    <line class="cls-2" x1="87.86" y1="44.13" x2="100.47" y2="37.97"/>
    <line class="cls-2" x1="94.79" y1="37.86" x2="101.69" y2="34.45"/>
    <line class="cls-2" x1="84.53" y1="42.93" x2="91.58" y2="39.45"/>
    <line class="cls-2" x1="96" y1="34.33" x2="103.22" y2="30.77"/>
    <line class="cls-2" x1="80.18" y1="42.14" x2="88.12" y2="38.22"/>
    <line class="cls-2" x1="97.1" y1="31.16" x2="104.3" y2="27.71"/>
    <line class="cls-2" x1="79.96" y1="39.37" x2="84.73" y2="37.08"/>
    <line class="cls-2" x1="98.94" y1="27.25" x2="105.57" y2="23.89"/>
    <line class="cls-2" x1="98.97" y1="24.51" x2="105.6" y2="21.15"/>
    <g id="Layer_3" data-name="Layer 3">
      <g>
        <path class="cls-4" d="M81.98,13.86c.53-1.56,2.17-3.44,3.65-4.16l1.32-.65c1.48-.73,2.73-1.34,2.76-1.35s1.35.4,2.92.92l7.98,2.66c1.57.52,2.42,2.23,1.9,3.79l-7.44,22.3c-.52,1.57-2.23,2.42-3.79,1.9l-13.21-4.4c-1.57-.52-2.41-2.23-1.89-3.79l5.8-17.22Z"/>
        <path class="cls-1" d="M81.98,13.86c.53-1.56,2.17-3.44,3.65-4.16l1.32-.65c1.48-.73,2.73-1.34,2.76-1.35s1.35.4,2.92.92l7.98,2.66c1.57.52,2.42,2.23,1.9,3.79l-7.44,22.3c-.52,1.57-2.23,2.42-3.79,1.9l-13.21-4.4c-1.57-.52-2.41-2.23-1.89-3.79l5.8-17.22Z"/>
      </g>
    </g>
  </g>
  <g id="Layer_7" data-name="Layer 7">
    <text class="cls-3" transform="translate(108.66 81.94)"><tspan x="0" y="0">DIGITAL</tspan></text>
    <text class="cls-3" transform="translate(107.39 109.12)"><tspan x="0" y="0">CLEANUP</tspan></text>
    <text class="cls-3" transform="translate(108.69 136.68)"><tspan x="0" y="0">DAY</tspan></text>
    <g>
      <path class="cls-5" d="M174.09,19.28c.49.2.98.41,1.46.62,6.6,2.87,12.9,6.42,18.78,10.57.85.6,1.72,1.26,2.11,2.22.43,1.07.16,2.28.18,3.44.04,2.64,1.78,5.17,4.23,6.15.26.1.55.21.68.46.1.19.07.42.03.63-.43,1.88-2.5,3.01-4.43,3.01s-3.74-.85-5.48-1.68c-25.16-12.09-50.27-24.82-77.27-31.9-1.05-.27-2.15-.57-2.92-1.33-1.43-1.4-1.12-3.76-.14-5.56.17-.31.53-.46.87-.36,1.68.49,3.46.64,5.2.44.04,0,.08-.01.11-.02h0c.21-.06.39-.2.48-.39,1.36-2.81,4.41-4.05,7.58-4.11s6.44,1.12,9.51,2.29c1.81.69,3.63,1.39,5.29,2.39.9.54,2.29.46,3.21.95.86.46,1.67.63,2.6.92v-.05c.72-1.36,1.57-2.76,2.94-3.47,1.87-.97,4.14-.37,6.15.24l6.15,1.87h-.05c3.7,1.92,7.41,3.83,11.11,5.74,1.01.52,2.07,1.08,2.71,2.02s.2,2.03-.19,3.11l-.92,1.78Z"/>
      <path class="cls-5" d="M173.69,20.73c5.52,2.32,10.84,5.13,15.88,8.35,1.23.78,2.44,1.59,3.63,2.43,1.35.94,2.03,1.58,1.97,3.31-.09,2.61.43,4.95,2.28,6.91.68.72,1.67,1.58,2.65,1.85l.36.15c-.26-.53-.45-.59-.56-.18-.09.06-.33.42-.38.47-.43.41-1.01.66-1.58.79-2.7.59-5.71-1.48-8.04-2.6-5.53-2.66-11.04-5.34-16.58-7.98-10.97-5.22-22.04-10.26-33.38-14.64-5.63-2.17-11.33-4.17-17.1-5.94-2.9-.89-5.84-1.61-8.75-2.48-.97-.29-1.89-.69-2.07-1.8-.09-.57.03-1.17.2-1.71.03-.09.14-.56.25-.66-.37.13-.31.2.19.22.21.05.43.09.65.12,1.4.24,3.17.48,4.56.09,1.24-.35,1.49-1.5,2.27-2.36,1.85-2.05,4.99-2.33,7.56-1.96,3.32.48,6.7,1.85,9.74,3.22,1.4.63,2.61,1.47,4.13,1.77,1.45.29,2.8.94,4.22,1.37,1.2.36,2.01-.78,1.85-1.85v-.05c-.06.39-.11.77-.16,1.16.51-.95,1.05-1.97,1.93-2.63,1.05-.78,2.4-.68,3.61-.41,2.71.59,5.37,1.57,8.01,2.38v-2.89h-.05c-1.24.28-1.49,2.17-.36,2.75,3.56,1.84,7.12,3.67,10.68,5.51.7.36,1.46.69,2.07,1.18.76.61.68,1.21.33,2.07-.25.62-.6,1.22-.91,1.83-.88,1.71,1.71,3.23,2.59,1.51.5-.96,1.04-1.9,1.35-2.95.63-2.11-.06-3.78-1.84-5.05s-3.97-2.16-5.92-3.17c-2.28-1.18-4.56-2.35-6.84-3.53l-.36,2.74h.05c1.51-.34,1.35-2.49,0-2.9-1.89-.58-3.78-1.15-5.68-1.73-1.69-.51-3.46-1.06-5.25-.93-1.61.12-3.07.78-4.18,1.98-.9.97-2.2,2.55-1.98,3.93l1.85-1.85c-1.35-.41-2.65-1.05-4.03-1.34-1.53-.32-2.79-1.16-4.22-1.78-3.05-1.32-6.29-2.65-9.58-3.21-2.83-.48-5.8-.36-8.41.95-1.08.54-2.04,1.33-2.79,2.28-.16.2-.44.47-.52.72l-.18.3c.3.01.33.02.1.03-.68.27-1.97.04-2.66-.05-1.31-.18-2.65-.89-3.82.11-1.01.87-1.43,2.8-1.49,4.07-.14,3.02,1.94,4.74,4.63,5.49,6.39,1.78,12.72,3.66,18.97,5.89,12.88,4.6,25.37,10.21,37.72,16.06,6.18,2.93,12.32,5.91,18.48,8.88,2.77,1.34,5.82,3.19,9.02,2.85,2.36-.26,5.17-1.98,5.27-4.63.07-1.89-1.52-2.03-2.73-2.91-1.13-.83-1.95-2.12-2.17-3.51-.26-1.65.29-3.28-.44-4.87s-2.24-2.48-3.59-3.41c-6.16-4.25-12.76-7.78-19.66-10.69-.75-.32-1.64.34-1.85,1.05-.25.86.3,1.53,1.05,1.85Z"/>
    </g>
    <g>
      <path class="cls-4" d="M170.07,16.92c0-.92,0-.84-.32-1.3s-.83-.74-1.32-1c-1.84-.97-3.69-1.94-5.53-2.91-2.93-1.54-5.94-3.1-9.22-3.51-.61-.07-1.25-.1-1.81.14s-1.19.77-1.08,1.37v.15c6.08,1.97,11.57,4.76,17.53,7.09.45.18,1.05.35,1.5.53l.27-.57Z"/>
      <path class="cls-4" d="M171.57,16.92c0-2.39-1.77-3.27-3.69-4.28-2.27-1.19-4.52-2.43-6.83-3.55s-4.52-1.99-6.98-2.33c-2.19-.3-4.8.5-4.8,3.11,0,.69.47,1.24,1.1,1.45,6.5,2.13,12.62,5.24,19.03,7.62.57.21,1.43-.13,1.69-.69l.27-.57c.82-1.74-1.77-3.26-2.59-1.51l-.27.57,1.69-.69c-6.41-2.38-12.53-5.49-19.03-7.62l1.1,1.45c0-.22-.18-.03.1-.11.35-.1.62-.12.99-.09.87.07,1.74.3,2.57.55,1.68.51,3.27,1.27,4.83,2.07,1.66.85,3.3,1.73,4.95,2.59.8.42,1.69.79,2.44,1.3.22.15.32.25.48.45-.04-.08-.06-.16-.07-.25,0,.18,0,.35,0,.53,0,1.93,3.01,1.93,3,0Z"/>
    </g>
    <path class="cls-2" d="M84.92,12.17l2.25.75c.54.18,1.13-.1,1.34-.63l1.77-4.56"/>
  </g>
</svg>